[img]http://i.imgur.com/Qdtij.jpg[/img]

[code]

Taken.2.2012.UNRATED.EXTENDED.720p.BDRip.XViD.AC3-26k
 
http://www.imdb.com/title/tt1397280/

Plot:

In Istanbul, retired CIA operative Bryan Mills and his wife are taken hostage by the father of a kidnapper
 Mills killed while rescuing his daughter.


Sources - VIDEO: Taken 2 BD25 2012 1080p 2-In-1 BluRay AVC DTS-HD MA 5 1-iPlanet ..... thanks .... :P
          AUDIO: Taken 2 BD25 2012 1080p 2-In-1 BluRay AVC DTS-HD MA 5 1-iPlanet ..... thanks .... :P
          SUBS : ENG.SRT IN TORRENT FILES

Format                                   : AVI
Format/Info                              : Audio Video Interleave
Format profile                           : OpenDML
File size                                : 2.85 GiB
Duration                                 : 1h 38mn
Overall bit rate                         : 4 150 Kbps
Writing library                          : VirtualDub build 32839/release

Video
ID                                       : 0
Format                                   : MPEG-4 Visual
Format profile                           : Advanced Simple@L5
Format settings, BVOP                    : 2
Format settings, QPel                    : No
Format settings, GMC                     : No warppoints
Format settings, Matrix                  : Default (H.263)
Codec ID                                 : XVID
Codec ID/Hint                            : XviD
Duration                                 : 1h 38mn
Bit rate                                 : 3 499 Kbps
Width                                    : 1 280 pixels
Height                                   : 544 pixels
Display aspect ratio                     : 2.35:1
Frame rate                               : 23.976 fps
Color space                              : YUV
Chroma subsampling                       : 4:2:0
Bit depth                                : 8 bits
Scan type                                : Progressive
Compression mode                         : Lossy
Bits/(Pixel*Frame)                       : 0.210
Stream size                              : 2.40 GiB (84%)
Writing library                          : XviD 1.2.1 (UTC 2008-12-04)

Audio
ID                                       : 1
Format                                   : AC-3
Format/Info                              : Audio Coding 3
Mode extension                           : CM (complete main)
Format settings, Endianness              : Big
Codec ID                                 : 2000
Duration                                 : 1h 38mn
Bit rate mode                            : Constant
Bit rate                                 : 640 Kbps
Channel(s)                               : 6 channels
Channel positions                        : Front: L C R, Side: L R, LFE
Sampling rate                            : 48.0 KHz
Bit depth                                : 16 bits
Compression mode                         : Lossy
Stream size                              : 450 MiB (15%)
Alignment                                : Split accross interleaves
Interleave, duration                     : 42 ms (1.00 video frame)
Interleave, preload duration             : 500 ms

Notes -

Took the BD made a script to make magic happen and this is the outcome.. enjoy

[/code]

Screens:

[img]http://i.imgur.com/m0qjd.jpg[/img]
[img]http://i.imgur.com/Fjahj.png[/img]
[img]http://i.imgur.com/XqkAn.png[/img]
[img]http://i.imgur.com/TV7QK.jpg[/img]
[img]http://i.imgur.com/pcP9p.jpg[/img]
[img]http://imageshack.us/a/img94/4517/30815057.png[/img]
[img]http://imageshack.us/a/img845/110/14949510.png[/img]
[img]http://imageshack.us/a/img507/4843/18483675.png[/img]
[img]http://imageshack.us/a/img854/3997/34671066.png[/img]
[img]http://imageshack.us/a/img837/5870/48528508.png[/img]


Greetz:
SILENT HD|CM8|RX|VISION|HDSCENE|xTriLL|ADTRG|CRYS|REMIXHD|HS|Tommiecook
BIDA|RX|REFILL|INSPiRAL|AXED|HOPE|Anonymous|GooN|NOIR|Blackjesus|Gabroo Punjab Deh
|UNiQUE|RESiSTANCE|TRiNiTY|LEGION

To all the people who have helped me, you know who you are

Anything to offer email us @: 26k@hushmail.me 